<?xml version="1.0" encoding="UTF-8"?>
<svg id="Capa_1" data-name="Capa 1" xmlns="http://www.w3.org/2000/svg" viewBox="0 0 1000 1000">
  <defs>
    <style>
      .cls-1 {
        fill: #005491;
      }

      .cls-1, .cls-2, .cls-3, .cls-4, .cls-5 {
        stroke-width: 0px;
      }

      .cls-2 {
        fill: #1a3d7c;
      }

      .cls-3 {
        fill: #55c1dd;
      }

      .cls-4 {
        fill: #bff;
      }

      .cls-5 {
        fill: #0083b1;
      }
    </style>
  </defs>
  <path class="cls-1" d="m756.39,591.56c27-22.79,55.72-47.46,80.64-75.03V88.26c0-6.22-4.72-11.26-10.54-11.26h-105.41c-5.82,0-10.54,5.04-10.54,11.26v539.35c15.65-11.47,30.95-23.48,45.85-36.05Z"/>
  <path class="cls-5" d="m662.75,660.1V178.31c0-6.22-4.72-11.26-10.54-11.26h-105.41c-5.82,0-10.54,5.04-10.54,11.26v545.55c43.97-16.97,86.25-38.47,126.49-63.76Z"/>
  <path class="cls-3" d="m488.48,740.21v-471.85c0-6.22-4.72-11.26-10.54-11.26h-105.41c-5.82,0-10.54,5.04-10.54,11.26v498.26c46.82-5.77,91.86-16.16,126.49-26.41Z"/>
  <path class="cls-4" d="m314.2,770.7v-412.29c0-6.22-4.72-11.26-10.54-11.26h-105.41c-5.82,0-10.54,5.04-10.54,11.26v396.17c35.67,14.29,80.52,18.18,126.49,16.13Z"/>
  <path class="cls-2" d="m121.73,651.73c-47.67,235.98,280.61,172.24,396.5,132.1,88.09-30.51,169.81-79.27,242.37-140.49,72.6-61.26,157.59-136.1,147.93-244.39,67.8,192.21-116.71,352.85-260.38,427.02-81.29,41.96-170.93,71.6-259.86,88.06-85.61,15.85-202.22,17.43-269.27-52.37-55.11-57.36-57.84-155.67,2.72-209.92Z"/>
</svg>